# xmcd
#
# Track frame offsets: 
#        150
#        11815
#        23085
#        34080
#        43648
#        58210
#        68243
#        81795
#        93085
#        105253
#        116513
#        126273
#
# Disc length: 1803 seconds
#
# Revision: 3
# Processed by: cddbd v1.5.2PL0 Copyright (c) Steve Scherf et al.
# Submitted via: ExactAudioCopy v0.99pb5
#
DISCID=9407090c
DTITLE=Marty Robbins - The Many Sides Of Marty Robbins - Disc 3
DYEAR=1900
DGENRE=Country
TTITLE0=That's All Right
TTITLE1=Maybellene
TTITLE2=Singing The Blues
TTITLE3=Long Tall Sally
TTITLE4=Tennessee Toddy
TTITLE5=Respectfully Miss Brooks
TTITLE6=Mean Mama Blues
TTITLE7=Long Gone Lonesome Blues
TTITLE8=Pretty Mama
TTITLE9=A White Sports Coat 
TTITLE10=Knee Deep In The Blues
TTITLE11=Ruby Ann
EXTD=
EXTT0=
EXTT1=
EXTT2=
EXTT3=
EXTT4=
EXTT5=
EXTT6=
EXTT7=
EXTT8=
EXTT9=
EXTT10=
EXTT11=
PLAYORDER=
